<svg preserveAspectRatio="none" width="100%" height="100%" overflow="visible" style="display: block;" viewBox="0 0 24 24" fill="none" xmlns="http://www.w3.org/2000/svg">
<g id="arrows_output">
<mask id="mask0_3346_3152" style="mask-type:alpha" maskUnits="userSpaceOnUse" x="0" y="0" width="24" height="24">
<rect id="Bounding box" width="24" height="24" fill="var(--fill-0, #D9D9D9)"/>
</mask>
<g mask="url(#mask0_3346_3152)">
<path id="arrows_output_2" d="M12 15C11.45 15 10.9792 14.8042 10.5875 14.4125C10.1958 14.0208 10 13.55 10 13C10 12.45 10.1958 11.9792 10.5875 11.5875C10.9792 11.1958 11.45 11 12 11C12.55 11 13.0208 11.1958 13.4125 11.5875C13.8042 11.9792 14 12.45 14 13C14 13.55 13.8042 14.0208 13.4125 14.4125C13.0208 14.8042 12.55 15 12 15ZM6.4 20H8C8.28333 20 8.52083 20.0958 8.7125 20.2875C8.90417 20.4792 9 20.7167 9 21C9 21.2833 8.90417 21.5208 8.7125 21.7125C8.52083 21.9042 8.28333 22 8 22H4C3.71667 22 3.47917 21.9042 3.2875 21.7125C3.09583 21.5208 3 21.2833 3 21V17C3 16.7167 3.09583 16.4792 3.2875 16.2875C3.47917 16.0958 3.71667 16 4 16C4.28333 16 4.52083 16.0958 4.7125 16.2875C4.90417 16.4792 5 16.7167 5 17V18.6L7.4 16.2C7.58333 16.0167 7.81667 15.925 8.1 15.925C8.38333 15.925 8.61667 16.0167 8.8 16.2C8.98333 16.3833 9.075 16.6167 9.075 16.9C9.075 17.1833 8.98333 17.4167 8.8 17.6L6.4 20ZM17.6 20L15.2 17.6C15.0167 17.4167 14.925 17.1833 14.925 16.9C14.925 16.6167 15.0167 16.3833 15.2 16.2C15.3833 16.0167 15.6167 15.925 15.9 15.925C16.1833 15.925 16.4167 16.0167 16.6 16.2L19 18.6V17C19 16.7167 19.0958 16.4792 19.2875 16.2875C19.4792 16.0958 19.7167 16 20 16C20.2833 16 20.5208 16.0958 20.7125 16.2875C20.9042 16.4792 21 16.7167 21 17V21C21 21.2833 20.9042 21.5208 20.7125 21.7125C20.5208 21.9042 20.2833 22 20 22H16C15.7167 22 15.4792 21.9042 15.2875 21.7125C15.0958 21.5208 15 21.2833 15 21C15 20.7167 15.0958 20.4792 15.2875 20.2875C15.4792 20.0958 15.7167 20 16 20H17.6ZM5 7.4V9C5 9.28333 4.90417 9.52083 4.7125 9.7125C4.52083 9.90417 4.28333 10 4 10C3.71667 10 3.47917 9.90417 3.2875 9.7125C3.09583 9.52083 3 9.28333 3 9V5C3 4.71667 3.09583 4.47917 3.2875 4.2875C3.47917 4.09583 3.71667 4 4 4H8C8.28333 4 8.52083 4.09583 8.7125 4.2875C8.90417 4.47917 9 4.71667 9 5C9 5.28333 8.90417 5.52083 8.7125 5.7125C8.52083 5.90417 8.28333 6 8 6H6.4L8.8 8.4C8.98333 8.58333 9.075 8.81667 9.075 9.1C9.075 9.38333 8.98333 9.61667 8.8 9.8C8.61667 9.98333 8.38333 10.075 8.1 10.075C7.81667 10.075 7.58333 9.98333 7.4 9.8L5 7.4ZM19 7.4L16.6 9.8C16.4167 9.98333 16.1833 10.075 15.9 10.075C15.6167 10.075 15.3833 9.98333 15.2 9.8C15.0167 9.61667 14.925 9.38333 14.925 9.1C14.925 8.81667 15.0167 8.58333 15.2 8.4L17.6 6H16C15.7167 6 15.4792 5.90417 15.2875 5.7125C15.0958 5.52083 15 5.28333 15 5C15 4.71667 15.0958 4.47917 15.2875 4.2875C15.4792 4.09583 15.7167 4 16 4H20C20.2833 4 20.5208 4.09583 20.7125 4.2875C20.9042 4.47917 21 4.71667 21 5V9C21 9.28333 20.9042 9.52083 20.7125 9.7125C20.5208 9.90417 20.2833 10 20 10C19.7167 10 19.4792 9.90417 19.2875 9.7125C19.0958 9.52083 19 9.28333 19 9V7.4Z" fill="var(--fill-0, #24525F)"/>
</g>
</g>
</svg>
