<svg preserveAspectRatio="none" width="100%" height="100%" overflow="visible" style="display: block;" viewBox="0 0 24 24" fill="none" xmlns="http://www.w3.org/2000/svg">
<g id="design_services">
<mask id="mask0_3346_3160" style="mask-type:alpha" maskUnits="userSpaceOnUse" x="0" y="0" width="24" height="24">
<rect id="Bounding box" width="24" height="24" fill="var(--fill-0, #D9D9D9)"/>
</mask>
<g mask="url(#mask0_3346_3160)">
<path id="design_services_2" d="M8.8 10.9496L10.95 8.77458L9.55 7.34958L9.15 7.74958C8.96667 7.93291 8.7375 8.02874 8.4625 8.03708C8.1875 8.04541 7.95 7.94958 7.75 7.74958C7.55 7.54958 7.45 7.31208 7.45 7.03708C7.45 6.76208 7.55 6.52458 7.75 6.32458L8.125 5.94958L7 4.82458L4.825 6.99958L8.8 10.9496ZM17 19.1746L19.175 16.9996L18.05 15.8746L17.65 16.2496C17.45 16.4496 17.2167 16.5496 16.95 16.5496C16.6833 16.5496 16.45 16.4496 16.25 16.2496C16.05 16.0496 15.95 15.8162 15.95 15.5496C15.95 15.2829 16.05 15.0496 16.25 14.8496L16.625 14.4496L15.2 13.0496L13.05 15.1996L17 19.1746ZM4 20.9996C3.71667 20.9996 3.47917 20.9037 3.2875 20.7121C3.09583 20.5204 3 20.2829 3 19.9996V17.1746C3 17.0412 3.025 16.9121 3.075 16.7871C3.125 16.6621 3.2 16.5496 3.3 16.4496L7.375 12.3746L3.05 8.04958C2.76667 7.76624 2.625 7.41624 2.625 6.99958C2.625 6.58291 2.76667 6.23291 3.05 5.94958L5.95 3.04958C6.23333 2.76624 6.58333 2.62874 7 2.63708C7.41667 2.64541 7.76667 2.79124 8.05 3.07458L12.4 7.39958L16.175 3.59958C16.375 3.39958 16.6 3.24958 16.85 3.14958C17.1 3.04958 17.3583 2.99958 17.625 2.99958C17.8917 2.99958 18.15 3.04958 18.4 3.14958C18.65 3.24958 18.875 3.39958 19.075 3.59958L20.4 4.94958C20.6 5.14958 20.75 5.37458 20.85 5.62458C20.95 5.87458 21 6.13291 21 6.39958C21 6.66624 20.95 6.92041 20.85 7.16208C20.75 7.40374 20.6 7.62458 20.4 7.82458L16.625 11.6246L20.95 15.9496C21.2333 16.2329 21.375 16.5829 21.375 16.9996C21.375 17.4162 21.2333 17.7662 20.95 18.0496L18.05 20.9496C17.7667 21.2329 17.4167 21.3746 17 21.3746C16.5833 21.3746 16.2333 21.2329 15.95 20.9496L11.625 16.6246L7.55 20.6996C7.45 20.7996 7.3375 20.8746 7.2125 20.9246C7.0875 20.9746 6.95833 20.9996 6.825 20.9996H4ZM5 18.9996H6.4L16.2 9.22458L14.775 7.79958L5 17.5996V18.9996Z" fill="var(--fill-0, #24525F)"/>
</g>
</g>
</svg>
