<svg preserveAspectRatio="none" width="100%" height="100%" overflow="visible" style="display: block;" viewBox="0 0 20.0083 20.0083" fill="none" xmlns="http://www.w3.org/2000/svg">
<g id="Rating">
<g id="Path">
</g>
<path id="Path_2" fill-rule="evenodd" clip-rule="evenodd" d="M5.00208 2.50104C5.00208 4.34276 3.50908 5.83576 1.66736 5.83576C3.50908 5.83576 5.00208 7.32877 5.00208 9.17049C5.00208 7.32877 6.49509 5.83576 8.33681 5.83576C6.49509 5.83576 5.00208 4.34276 5.00208 2.50104Z" stroke="var(--stroke-0, #C7DE7D)" stroke-width="1.25" stroke-linecap="round" stroke-linejoin="round"/>
<path id="Path_3" fill-rule="evenodd" clip-rule="evenodd" d="M14.1726 12.5052C14.1726 10.2031 12.3063 8.33681 10.0042 8.33681C12.3063 8.33681 14.1726 6.47055 14.1726 4.1684C14.1726 6.47055 16.0388 8.33681 18.341 8.33681C16.0388 8.33681 14.1726 10.2031 14.1726 12.5052Z" stroke="var(--stroke-0, #C7DE7D)" stroke-width="1.25" stroke-linecap="round" stroke-linejoin="round"/>
<path id="Path_4" d="M14.1726 12.5052V13.3389" stroke="var(--stroke-0, #C7DE7D)" stroke-width="1.25" stroke-linecap="round" stroke-linejoin="round"/>
<path id="Path_5" d="M14.1726 4.1684V3.33472" stroke="var(--stroke-0, #C7DE7D)" stroke-width="1.25" stroke-linecap="round" stroke-linejoin="round"/>
<path id="Path_6" d="M8.33681 17.5073V18.341" stroke="var(--stroke-0, #C7DE7D)" stroke-width="1.25" stroke-linecap="round" stroke-linejoin="round"/>
<path id="Path_7" d="M8.33681 11.6715V10.8378" stroke="var(--stroke-0, #C7DE7D)" stroke-width="1.25" stroke-linecap="round" stroke-linejoin="round"/>
<path id="Path_8" d="M5.00208 9.17049V10.0042" stroke="var(--stroke-0, #C7DE7D)" stroke-width="1.25" stroke-linecap="round" stroke-linejoin="round"/>
<path id="Path_9" d="M5.00208 1.66736V2.50104" stroke="var(--stroke-0, #C7DE7D)" stroke-width="1.25" stroke-linecap="round" stroke-linejoin="round"/>
<path id="Path_10" fill-rule="evenodd" clip-rule="evenodd" d="M8.33681 11.2547C8.33681 13.0964 6.8438 14.5894 5.00208 14.5894C6.8438 14.5894 8.33681 16.0824 8.33681 17.9241C8.33681 16.0824 9.82981 14.5894 11.6715 14.5894C9.82981 14.5894 8.33681 13.0964 8.33681 11.2547Z" stroke="var(--stroke-0, #C7DE7D)" stroke-width="1.25" stroke-linecap="round" stroke-linejoin="round"/>
</g>
</svg>
