<svg preserveAspectRatio="none" width="100%" height="100%" overflow="visible" style="display: block;" viewBox="0 0 1171.03 435.852" fill="none" xmlns="http://www.w3.org/2000/svg">
<path id="Vector" opacity="0.06" d="M112.902 0V7.87685M112.902 7.87685V15.7537M112.902 7.87685H105.025M112.902 7.87685H120.778M112.902 210.049V217.926M112.902 217.926V225.803M112.902 217.926H105.025M112.902 217.926H120.778M112.902 420.099V427.976M112.902 427.976V435.852M112.902 427.976H105.025M112.902 427.976H120.778M322.951 0V7.87685M322.951 7.87685V15.7537M322.951 7.87685H315.074M322.951 7.87685H330.828M322.951 210.049V217.926M322.951 217.926V225.803M322.951 217.926H315.074M322.951 217.926H330.828M322.951 420.099V427.976M322.951 427.976V435.852M322.951 427.976H315.074M322.951 427.976H330.828M533 0V7.87685M533 7.87685V15.7537M533 7.87685H525.124M533 7.87685H540.877M533 210.049V217.926M533 217.926V225.803M533 217.926H525.124M533 217.926H540.877M533 420.099V427.976M533 427.976V435.852M533 427.976H525.124M533 427.976H540.877M743.05 0V7.87685M743.05 7.87685V15.7537M743.05 7.87685H735.173M743.05 7.87685H750.927M743.05 210.049V217.926M743.05 217.926V225.803M743.05 217.926H735.173M743.05 217.926H750.927M743.05 420.099V427.976M743.05 427.976V435.852M743.05 427.976H735.173M743.05 427.976H750.927M953.099 0V7.87685M953.099 7.87685V15.7537M953.099 7.87685H945.222M953.099 7.87685H960.976M953.099 210.049V217.926M953.099 217.926V225.803M953.099 217.926H945.222M953.099 217.926H960.976M953.099 420.099V427.976M953.099 427.976V435.852M953.099 427.976H945.222M953.099 427.976H960.976M1163.15 0V7.87685M1163.15 7.87685V15.7537M1163.15 7.87685H1155.27M1163.15 7.87685H1171.03M1163.15 210.049V217.926M1163.15 217.926V225.803M1163.15 217.926H1155.27M1163.15 217.926H1171.03M1163.15 420.099V427.976M1163.15 427.976V435.852M1163.15 427.976H1155.27M1163.15 427.976H1171.03M112.902 105.025V112.902M112.902 112.902V120.778M112.902 112.902H105.025M112.902 112.902H120.778M112.902 315.074V322.951M112.902 322.951V330.828M112.902 322.951H105.025M112.902 322.951H120.778M322.951 105.025V112.902M322.951 112.902V120.778M322.951 112.902H315.074M322.951 112.902H330.828M322.951 315.074V322.951M322.951 322.951V330.828M322.951 322.951H315.074M322.951 322.951H330.828M533 105.025V112.902M533 112.902V120.778M533 112.902H525.124M533 112.902H540.877M533 315.074V322.951M533 322.951V330.828M533 322.951H525.124M533 322.951H540.877M743.05 105.025V112.902M743.05 112.902V120.778M743.05 112.902H735.173M743.05 112.902H750.927M743.05 315.074V322.951M743.05 322.951V330.828M743.05 322.951H735.173M743.05 322.951H750.927M953.099 105.025V112.902M953.099 112.902V120.778M953.099 112.902H945.222M953.099 112.902H960.976M953.099 315.074V322.951M953.099 322.951V330.828M953.099 322.951H945.222M953.099 322.951H960.976M1163.15 105.025V112.902M1163.15 112.902V120.778M1163.15 112.902H1155.27M1163.15 112.902H1171.03M1163.15 315.074V322.951M1163.15 322.951V330.828M1163.15 322.951H1155.27M1163.15 322.951H1171.03M7.87685 0V7.87685M7.87685 7.87685V15.7537M7.87685 7.87685H0M7.87685 7.87685H15.7537M7.87685 210.049V217.926M7.87685 217.926V225.803M7.87685 217.926H0M7.87685 217.926H15.7537M7.87685 420.099V427.976M7.87685 427.976V435.852M7.87685 427.976H0M7.87685 427.976H15.7537M217.926 0V7.87685M217.926 7.87685V15.7537M217.926 7.87685H210.049M217.926 7.87685H225.803M217.926 210.049V217.926M217.926 217.926V225.803M217.926 217.926H210.049M217.926 217.926H225.803M217.926 420.099V427.976M217.926 427.976V435.852M217.926 427.976H210.049M217.926 427.976H225.803M427.976 0V7.87685M427.976 7.87685V15.7537M427.976 7.87685H420.099M427.976 7.87685H435.853M427.976 210.049V217.926M427.976 217.926V225.803M427.976 217.926H420.099M427.976 217.926H435.853M427.976 420.099V427.976M427.976 427.976V435.852M427.976 427.976H420.099M427.976 427.976H435.853M638.025 0V7.87685M638.025 7.87685V15.7537M638.025 7.87685H630.148M638.025 7.87685H645.902M638.025 210.049V217.926M638.025 217.926V225.803M638.025 217.926H630.148M638.025 217.926H645.902M638.025 420.099V427.976M638.025 427.976V435.852M638.025 427.976H630.148M638.025 427.976H645.902M848.075 0V7.87685M848.075 7.87685V15.7537M848.075 7.87685H840.198M848.075 7.87685H855.951M848.075 210.049V217.926M848.075 217.926V225.803M848.075 217.926H840.198M848.075 217.926H855.951M848.075 420.099V427.976M848.075 427.976V435.852M848.075 427.976H840.198M848.075 427.976H855.951M1058.12 0V7.87685M1058.12 7.87685V15.7537M1058.12 7.87685H1050.25M1058.12 7.87685H1066M1058.12 210.049V217.926M1058.12 217.926V225.803M1058.12 217.926H1050.25M1058.12 217.926H1066M1058.12 420.099V427.976M1058.12 427.976V435.852M1058.12 427.976H1050.25M1058.12 427.976H1066M7.87685 105.025V112.902M7.87685 112.902V120.778M7.87685 112.902H0M7.87685 112.902H15.7537M7.87685 315.074V322.951M7.87685 322.951V330.828M7.87685 322.951H0M7.87685 322.951H15.7537M217.926 105.025V112.902M217.926 112.902V120.778M217.926 112.902H210.049M217.926 112.902H225.803M217.926 315.074V322.951M217.926 322.951V330.828M217.926 322.951H210.049M217.926 322.951H225.803M427.976 105.025V112.902M427.976 112.902V120.778M427.976 112.902H420.099M427.976 112.902H435.853M427.976 315.074V322.951M427.976 322.951V330.828M427.976 322.951H420.099M427.976 322.951H435.853M638.025 105.025V112.902M638.025 112.902V120.778M638.025 112.902H630.148M638.025 112.902H645.902M638.025 315.074V322.951M638.025 322.951V330.828M638.025 322.951H630.148M638.025 322.951H645.902M848.075 105.025V112.902M848.075 112.902V120.778M848.075 112.902H840.198M848.075 112.902H855.951M848.075 315.074V322.951M848.075 322.951V330.828M848.075 322.951H840.198M848.075 322.951H855.951M1058.12 105.025V112.902M1058.12 112.902V120.778M1058.12 112.902H1050.25M1058.12 112.902H1066M1058.12 315.074V322.951M1058.12 322.951V330.828M1058.12 322.951H1050.25M1058.12 322.951H1066" stroke="var(--stroke-0, #6F8C94)" stroke-width="1.16961"/>
</svg>
